# xmcd CD database file
#
# Track frame offsets:
#	150
#	19016
#	30643
#	47904
#	59521
#	78928
#	98568
#	110734
#	125417
#	139033
#	157299
#	171082
#	183019
#	196081
#	205345
#
# Disc length: 2955 seconds
#
# Revision: 2
# Processed by: cddbd v1.5.2PL0 Copyright (c) Steve Scherf et al.
# Submitted via: CDex 1.79
#
DISCID=c90b890f
DTITLE=Various Artist - 30 Stars: Country - CD1
DYEAR=2015
DGENRE=Country
TTITLE0=Dolly Parton and Kenny Rogers - Islands in the Stream
TTITLE1=Willie Nelson - On the Road Again
TTITLE2=Ricky Skaggs - Country Boy
TTITLE3=Johnny Cash - I Walk the Line
TTITLE4=Kris Kristofferson - Me and Bobby McGee
TTITLE5=Martina McBride - I Just Call You Mine
TTITLE6=Charlie Rich - The Most Beautiful Girl
TTITLE7=Rosanne Cash - Seven Year Ache
TTITLE8=Merie Haggard - That's the Way Love Goes
TTITLE9=Mary Chapin Carpenter - He Thinks He'll Keep Her
TTITLE10=Patty Loveless - Here I Am
TTITLE11=Tammy Wynette - Stand by Your Man
TTITLE12=Aaron Tppin - Honky-Tonk Superman
TTITLE13=Lester Flatt and Earl Scruggs With The Foggy Mountain Boys - The Ballad of Jed Clampett
TTITLE14=Charlie Daniels - The Devil Went Down to Georgia
EXTD=YEAR: 2015
EXTT0=
EXTT1=
EXTT2=
EXTT3=
EXTT4=
EXTT5=
EXTT6=
EXTT7=
EXTT8=
EXTT9=
EXTT10=
EXTT11=
EXTT12=
EXTT13=
EXTT14=
PLAYORDER=
